<svg width="22" height="23" viewBox="0 0 22 23" fill="none" xmlns="http://www.w3.org/2000/svg">
<path d="M11 13.4167C13.0221 13.4167 14.6666 11.6974 14.6666 9.58333C14.6666 7.46925 13.0221 5.75 11 5.75C8.97781 5.75 7.33331 7.46925 7.33331 9.58333C7.33331 11.6974 8.97781 13.4167 11 13.4167ZM11 7.66667C12.0111 7.66667 12.8333 8.52629 12.8333 9.58333C12.8333 10.6404 12.0111 11.5 11 11.5C9.9889 11.5 9.16665 10.6404 9.16665 9.58333C9.16665 8.52629 9.9889 7.66667 11 7.66667Z" fill="black"/>
<path d="M10.4683 20.9052C10.6235 21.021 10.8093 21.0833 11 21.0833C11.1906 21.0833 11.3765 21.021 11.5316 20.9052C11.8103 20.6991 18.3599 15.7551 18.3333 9.58341C18.3333 5.35621 15.0434 1.91675 11 1.91675C6.95656 1.91675 3.66665 5.35621 3.66665 9.57862C3.64006 15.7551 10.1896 20.6991 10.4683 20.9052ZM11 3.83341C14.0332 3.83341 16.5 6.41229 16.5 9.58821C16.5192 13.8413 12.4776 17.6602 11 18.9128C9.52323 17.6593 5.48073 13.8394 5.49998 9.58341C5.49998 6.41229 7.96673 3.83341 11 3.83341Z" fill="black"/>
</svg>
