<svg width="33" height="30" viewBox="0 0 33 30" fill="none" xmlns="http://www.w3.org/2000/svg">
<rect width="33" height="30" rx="12" fill="#EBEBEB" fill-opacity="0.4"/>
<path d="M14.646 6.24792C14.7954 5.87864 15.0517 5.56238 15.382 5.3397C15.7123 5.11701 16.1016 4.99805 16.5 4.99805C16.8984 4.99805 17.2877 5.11701 17.618 5.3397C17.9483 5.56238 18.2046 5.87864 18.354 6.24792C19.8328 6.65461 21.1371 7.53548 22.0668 8.75526C22.9964 9.97504 23.4999 11.4663 23.5 12.9999V17.6969L25.332 20.4449C25.4325 20.5955 25.4902 20.7706 25.499 20.9514C25.5078 21.1322 25.4673 21.3121 25.3819 21.4717C25.2965 21.6313 25.1693 21.7648 25.014 21.8578C24.8587 21.9508 24.681 22 24.5 21.9999H19.965C19.8446 22.833 19.4281 23.5949 18.7917 24.1459C18.1553 24.6969 17.3418 25.0001 16.5 25.0001C15.6582 25.0001 14.8447 24.6969 14.2083 24.1459C13.5719 23.5949 13.1554 22.833 13.035 21.9999H8.5C8.31895 22 8.1413 21.9508 7.98599 21.8578C7.83068 21.7648 7.70353 21.6313 7.61812 21.4717C7.53271 21.3121 7.49224 21.1322 7.50103 20.9514C7.50981 20.7706 7.56752 20.5955 7.668 20.4449L9.5 17.6969V12.9999C9.5 9.77592 11.68 7.05992 14.646 6.24792ZM15.086 21.9999C15.1893 22.2926 15.3808 22.546 15.6341 22.7252C15.8875 22.9045 16.1902 23.0007 16.5005 23.0007C16.8108 23.0007 17.1135 22.9045 17.3669 22.7252C17.6202 22.546 17.8117 22.2926 17.915 21.9999H15.085H15.086ZM16.5 7.99992C15.1739 7.99992 13.9021 8.52671 12.9645 9.46439C12.0268 10.4021 11.5 11.6738 11.5 12.9999V17.9999C11.5 18.1975 11.4416 18.3906 11.332 18.5549L10.369 19.9999H22.63L21.667 18.5549C21.5578 18.3905 21.4997 18.1974 21.5 17.9999V12.9999C21.5 11.6738 20.9732 10.4021 20.0355 9.46439C19.0978 8.52671 17.8261 7.99992 16.5 7.99992Z" fill="black"/>
<circle cx="21.5" cy="9" r="3.5" fill="#FF0000" stroke="#EBEBEB"/>
</svg>
