<svg width="15" height="17" viewBox="0 0 15 17" fill="none" xmlns="http://www.w3.org/2000/svg">
<path d="M12.6003 7.01733H2.16008C1.51942 7.01733 1.00006 7.46635 1.00006 8.02025V15.0407C1.00006 15.5946 1.51942 16.0436 2.16008 16.0436H12.6003C13.2409 16.0436 13.7603 15.5946 13.7603 15.0407V8.02025C13.7603 7.46635 13.2409 7.01733 12.6003 7.01733Z" stroke="#A0A3BD" stroke-width="1.5" stroke-linecap="round" stroke-linejoin="round"/>
<path d="M3.31854 7.01725V4.50996C3.31854 3.579 3.7463 2.68616 4.50771 2.02787C5.26912 1.36958 6.30182 0.999756 7.37862 0.999756C8.45542 0.999756 9.48811 1.36958 10.2495 2.02787C11.0109 2.68616 11.4387 3.579 11.4387 4.50996V7.01725" stroke="#A0A3BD" stroke-width="1.5" stroke-linecap="round" stroke-linejoin="round"/>
</svg>
