<svg width="18" height="17" viewBox="0 0 18 17" fill="none" xmlns="http://www.w3.org/2000/svg">
<path d="M7.93589 0.65671C8.43365 -0.118255 9.56635 -0.118253 10.0641 0.656711L12.1429 3.8931C12.3141 4.15974 12.5792 4.35236 12.8858 4.43285L16.6061 5.40975C17.497 5.64367 17.847 6.72093 17.2638 7.43381L14.8281 10.4109C14.6275 10.6562 14.5262 10.9679 14.5444 11.2843L14.7649 15.1244C14.8178 16.0439 13.9014 16.7097 13.0432 16.3753L9.45914 14.9789C9.16386 14.8638 8.83614 14.8638 8.54086 14.9789L4.95682 16.3753C4.09861 16.7097 3.18224 16.0439 3.23505 15.1244L3.45562 11.2843C3.47379 10.9679 3.37252 10.6562 3.17185 10.4109L0.736232 7.43381C0.153013 6.72093 0.503038 5.64367 1.39389 5.40975L5.11424 4.43285C5.42076 4.35236 5.68588 4.15974 5.85715 3.8931L7.93589 0.65671Z" fill="#FFC700"/>
</svg>
