<svg width="21" height="15" viewBox="0 0 21 15" fill="none" xmlns="http://www.w3.org/2000/svg">
<path d="M20.0809 8.24824C19.4685 7.60035 18.6916 7.18354 17.7511 6.99763C18.0503 6.60704 18.1995 6.17931 18.1995 5.71446C18.1995 5.05731 17.926 4.49635 17.3793 4.03136C16.8326 3.56654 16.1727 3.33403 15.3997 3.33403C14.6998 3.33403 14.0945 3.52622 13.5843 3.9106C13.1543 3.03033 12.4704 2.31743 11.5336 1.7719C10.5966 1.22651 9.55199 0.953613 8.39989 0.953613C6.85416 0.953613 5.5343 1.41866 4.44054 2.34853C3.34671 3.27818 2.79996 4.40034 2.79996 5.71455C2.79996 5.80757 2.80728 5.94074 2.82184 6.11433C1.97605 6.44911 1.29423 6.95585 0.77656 7.63484C0.25893 8.31345 0 9.06214 0 9.88043C0 11.0272 0.479513 12.0082 1.43827 12.8233C2.39707 13.6386 3.55101 14.0462 4.89994 14.0462L16.8001 14.0462C17.9593 14.0462 18.9491 13.6972 19.7695 13.0001C20.5898 12.3027 21 11.4612 21 10.4755C20.9999 9.63867 20.6935 8.89594 20.0809 8.24824Z" fill="#56CCF2"/>
</svg>
